<?xml version='1.0' encoding='utf-8'?>
<svg xmlns="http://www.w3.org/2000/svg" version="1.1" width="600px" height="976px" viewBox="0 0 600 976"> <g id="layer1"> <g style="fill:rgb(0,0,0); fill-opacity:1.0; stroke-linejoin: miter"> <path d="M458.2835,441.2504C456.3916,442.9385,456.3916,442.9385,454.3979,443.17136C451.51642,443.4915,451.21082,443.54977,449.9156,443.92813C449.11517,444.16098,448.0092,444.67032,446.75763,445.3834C445.7098,445.98007,444.19632,446.75137,443.41046,447.10062C442.6246,447.44986,441.213,448.13382,440.26706,448.6141C439.33566,449.10886,438.4625,449.50174,438.36063,449.50174C438.2442,449.50174,437.64755,449.88016,437.0218,450.33133C435.14444,451.68472,433.44177,452.48514,429.96362,453.6639L426.7038,454.76993L423.74957,454.95908L420.78076,455.13376L419.61655,455.74496C418.46686,456.34164,418.42322,456.34164,416.24026,456.48715C415.0324,456.5745,413.4316,456.7054,412.6894,456.77823C411.48148,456.9092,411.24866,456.89462,410.43372,456.61813C408.38177,455.93417,407.13022,454.85727,406.4171,453.18362C405.44205,450.8989,404.94727,449.98203,404.08865,448.97794C403.12814,447.8428,402.4733,447.4935,401.30908,447.44986C398.55856,447.348,396.81223,448.5267,395.69165,451.20444C395.34238,452.0485,395.28418,452.38327,395.28418,453.57657C395.28418,454.79904,395.34238,455.10464,395.76443,456.18155C396.2447,457.38943,396.65216,457.91336,398.10745,459.194C398.77695,459.77615,400.72702,462.1483,400.72702,462.38113C400.72702,462.57034,399.27173,463.03604,398.6605,463.03604C397.87463,463.03604,396.47757,463.6036,395.02228,464.53494C393.5088,465.48093,392.89755,465.77194,391.12213,466.44138C390.5982,466.63058,389.27393,467.18356,388.18246,467.67838C386.58163,468.39145,385.94128,468.60977,384.98083,468.72617C384.3114,468.8135,383.2781,469.00272,382.68146,469.14822C382.08478,469.30826,380.77502,469.5848,379.77087,469.78854C378.76672,469.99228,377.36966,470.327,376.64203,470.53073C374.51727,471.15652,372.931,471.4767,371.8832,471.4767C370.9955,471.4767,370.87906,471.433,370.32608,470.98184C369.49655,470.2833,369.16183,470.196,368.84164,470.58896C368.66705,470.7927,368.41965,470.89456,368.07034,470.89456C367.7211,470.89456,367.5028,470.98184,367.3427,471.20016C367.06622,471.5931,366.30948,472.0588,365.9311,472.0588C365.61093,472.0588,364.2575,471.41843,363.87915,471.08377C363.7045,470.9382,363.61716,470.92368,363.54443,471.04007C363.36978,471.31662,364.7523,472.5972,365.75647,473.092C366.71695,473.5723,367.7793,474.41635,368.27408,475.1149C368.4633,475.3914,368.62338,475.94443,368.72525,476.74484C368.8999,478.22916,369.13272,479.04416,369.4092,479.14603C369.77304,479.29153,369.87494,478.86954,369.87494,477.25412C369.87494,475.21677,369.99133,474.99844,371.51938,474.24173L372.6545,473.67416L377.12225,473.70322C382.76877,473.73233,383.84567,473.60135,386.17416,472.6409C387.09097,472.24802,388.34253,471.79684,388.93918,471.62216C391.76242,470.7927,394.70215,469.84677,396.36115,469.2355C399.27173,468.14407,399.99936,468.1732,401.03262,469.46835C401.93488,470.57437,404.2197,474.1689,405.71863,476.84665C405.9806,477.3124,406.16977,477.96725,406.2862,478.73856C406.51904,480.44125,406.35898,480.76138,404.19058,482.988C403.23007,483.9776,402.1823,485.1127,401.89124,485.5202C400.84344,486.91727,400.43594,488.60538,399.91205,493.74255C399.78107,495.0669,399.5919,496.98785,399.49002,498.03568C399.38815,499.0689,399.22806,500.34955,399.14075,500.87347C399.068,501.39737,398.96613,503.42023,398.92245,505.3703C398.8788,507.53867,398.79147,508.9794,398.70416,509.0667C398.50043,509.27045,398.09296,509.08127,396.71042,508.07715C395.226,507.01477,393.66888,506.2289,392.2136,505.82144C391.57324,505.64682,390.56912,505.31207,389.987,505.07925C389.39032,504.8464,387.8914,504.29337,386.63986,503.85678C382.0993,502.27054,381.38626,501.97946,380.77502,501.39737C380.35297,500.97534,380.20746,500.71338,380.20746,500.3787C380.20746,499.62192,379.93097,498.86517,379.52347,498.545C379.05777,498.18118,378.35922,498.16663,376.75842,498.50134C375.63785,498.7342,375.4923,498.7342,374.06613,498.4868C373.23666,498.34128,372.1743,498.13754,371.69406,498.00653C371.2138,497.8901,370.5589,497.81735,370.2533,497.86102C369.7876,497.93378,369.59842,497.87558,369.26373,497.59906C368.91443,497.29346,368.798,497.2789,368.41965,497.40988C367.98303,497.55542,367.82297,497.992,368.1286,498.18118C368.34686,498.31216,368.30322,498.69052,368.05582,498.7924C367.92487,498.8361,367.70654,498.7633,367.54645,498.6177C367.28452,498.3849,367.2554,498.37033,367.1681,498.60318C367.10986,498.74872,367.18262,498.967,367.3282,499.1271C367.70654,499.54913,367.51736,499.86926,366.9498,499.75284C366.58597,499.68008,366.44046,499.72375,366.28036,499.9275C365.78558,500.61148,366.0621,500.77158,368.7398,501.25183C370.1805,501.5138,371.0828,501.7612,371.67947,502.0668C372.14517,502.29962,372.87283,502.54703,373.29483,502.6198C373.73145,502.69257,374.59006,502.9836,375.21582,503.27466C375.84158,503.5657,377.12225,504.06055,378.05362,504.36615C378.99957,504.6863,380.32388,505.19565,380.9933,505.50125C382.7833,506.34534,386.26147,508.61557,387.19284,509.5615C387.62946,509.9981,389.0702,511.08957,390.39447,511.96274C391.71878,512.8359,393.58154,514.1019,394.54205,514.7714C395.50253,515.4408,396.57944,516.0957,396.94327,516.2412C397.30707,516.3722,397.9911,516.6924,398.47134,516.93976C399.2135,517.3327,399.50458,517.3909,400.43594,517.3909C401.38187,517.3909,401.62927,517.3327,402.25504,516.9689C402.66254,516.736,403.36108,516.18304,403.8122,515.74646C404.49622,515.09155,404.7436,514.7132,405.31116,513.41797C406.2571,511.27878,406.85376,509.54697,407.71237,506.4763C408.11987,505.0356,408.68744,503.1146,408.96393,502.21234C409.51694,500.40778,409.66248,500.29135,410.43378,500.93167C411.1905,501.55746,415.46906,504.23517,417.2445,505.19565C419.04904,506.18524,419.7476,506.4763,423.26938,507.80063C424.41907,508.2372,425.4523,508.65924,425.55417,508.74655C425.90344,509.0376,425.58328,509.285,424.04068,509.9108C423.18207,510.24548,421.82864,510.95862,421.02826,511.46793C417.53555,513.72363,414.02832,515.71735,413.5044,515.71735C413.31522,515.71735,412.93683,515.51355,412.66037,515.2517C411.72897,514.4076,410.4483,514.0292,409.72067,514.4221C409.35687,514.62585,408.89117,515.64453,408.87662,516.2704C408.87662,517.53644,408.61465,518.00214,406.8974,519.86487C405.22385,521.684,404.96188,521.85864,403.76855,522.0333C402.96814,522.1497,402.7644,522.2661,402.7644,522.6154C402.7644,522.80457,402.72073,522.97925,402.6771,523.0375C402.61887,523.08105,402.57523,523.3867,402.56067,523.70685L402.53156,524.28894L403.23007,524.44904C404.23425,524.65283,404.29245,524.6382,404.8309,524.1726C405.4421,523.6487,405.80594,523.4595,407.93066,522.63C408.89117,522.2516,409.8953,521.7859,410.1427,521.5967C410.40463,521.39294,410.89948,521.131,411.23416,521.0146C411.58347,520.8982,412.6749,520.35974,413.67905,519.8213C414.68317,519.29736,415.862,518.6716,416.3131,518.45325C417.33182,517.9585,420.21326,517.28906,423.13843,516.867C423.8224,516.77966,425.3068,516.4159,426.44193,516.06665C427.57703,515.71735,428.59573,515.4263,428.71216,515.4263C429.01776,515.4263,432.59775,514.3203,433.64557,513.8982C435.81393,513.0396,436.30875,512.3702,436.2942,510.40558C436.27963,508.33908,435.81393,507.6842,432.525,504.96283C427.86807,501.09174,425.27768,499.098,422.62906,497.35165C419.83493,495.50345,417.82663,493.68436,417.22995,492.47647C416.89523,491.807,416.89523,490.3517,417.2154,488.94012C417.33182,488.4162,417.47733,487.6158,417.53555,487.1647C417.65198,486.14597,418.21954,483.48276,419.23822,479.18967L420.00952,475.91525L419.98044,472.27707C419.96588,470.26877,419.89313,468.08585,419.82034,467.4019C419.71848,466.57236,419.71848,465.77194,419.8058,465.01517C419.96588,463.6909,420.66443,461.78445,421.20288,461.1296C421.88687,460.3146,423.40036,459.7034,426.84933,458.85934C430.6476,457.9279,431.4771,457.68045,433.3981,456.9238C434.1985,456.61813,435.3191,456.2543,435.8721,456.1088C437.3274,455.77408,438.88455,455.00278,440.13608,454.04227C440.73276,453.59116,441.72235,452.83444,442.33356,452.36868C442.9448,451.90305,444.06534,450.95712,444.83664,450.25858C447.33975,447.98837,448.8678,446.7368,449.3917,446.51852C450.163,446.19833,450.78876,446.25656,451.7347,446.7368C452.7825,447.2753,453.23367,447.68277,453.51013,448.3085C453.9322,449.31265,454.44153,448.38132,454.15048,447.14426C453.81577,445.74722,454.13593,445.23782,454.96542,445.8491C455.9259,446.56216,456.94464,446.47488,456.086,445.74722L455.664,445.39792L456.17334,445.48532C456.44983,445.5435,457.22113,445.61624,457.86145,445.65994C459.21487,445.76175,459.6078,445.558,458.54544,445.2961C457.64316,445.06326,456.97372,444.71396,457.14838,444.53934C457.22113,444.46652,457.80325,444.27744,458.42902,444.10275C459.25854,443.89902,459.70966,443.69528,460.02985,443.38968C460.59738,442.8221,460.3791,442.6329,459.44772,442.89487C458.39993,443.20047,457.62863,443.3024,457.62863,443.15683C457.62863,443.084,457.96332,442.6329,458.3708,442.15268C459.37497,440.98843,459.59323,440.6392,459.43317,440.4791C459.34583,440.3918,458.90927,440.66824,458.2835,441.2504 Z"/> </g> </g> </svg>